<svg width="25" height="24" viewBox="0 0 25 24" fill="none" xmlns="http://www.w3.org/2000/svg">
    <path
        d="M12.6302 20.5299C10.3002 20.5299 7.97022 20.1599 5.76022 19.4199C4.92022 19.1299 4.28022 18.5399 4.00022 17.7699C3.71022 16.9999 3.81022 16.1499 4.27022 15.3899L5.42022 13.4799C5.66022 13.0799 5.88022 12.2799 5.88022 11.8099V8.91992C5.88022 5.19992 8.91022 2.16992 12.6302 2.16992C16.3502 2.16992 19.3802 5.19992 19.3802 8.91992V11.8099C19.3802 12.2699 19.6002 13.0799 19.8402 13.4899L20.9802 15.3899C21.4102 16.1099 21.4902 16.9799 21.2002 17.7699C20.9102 18.5599 20.2802 19.1599 19.4902 19.4199C17.2902 20.1599 14.9602 20.5299 12.6302 20.5299ZM12.6302 3.66992C9.74022 3.66992 7.38022 6.01992 7.38022 8.91992V11.8099C7.38022 12.5399 7.08022 13.6199 6.71022 14.2499L5.56022 16.1599C5.34022 16.5299 5.28022 16.9199 5.41022 17.2499C5.53022 17.5899 5.83022 17.8499 6.24022 17.9899C10.4202 19.3899 14.8502 19.3899 19.0302 17.9899C19.3902 17.8699 19.6702 17.5999 19.8002 17.2399C19.9302 16.8799 19.9002 16.4899 19.7002 16.1599L18.5502 14.2499C18.1702 13.5999 17.8802 12.5299 17.8802 11.7999V8.91992C17.8802 6.01992 15.5302 3.66992 12.6302 3.66992Z"
        fill="#1E1E1E" />
    <path
        d="M14.49 3.94018C14.42 3.94018 14.35 3.93018 14.28 3.91018C13.99 3.83018 13.71 3.77018 13.44 3.73018C12.59 3.62018 11.77 3.68018 11 3.91018C10.72 4.00018 10.42 3.91018 10.23 3.70018C10.04 3.49018 9.97998 3.19018 10.09 2.92018C10.5 1.87018 11.5 1.18018 12.64 1.18018C13.78 1.18018 14.78 1.86018 15.19 2.92018C15.29 3.19018 15.24 3.49018 15.05 3.70018C14.9 3.86018 14.69 3.94018 14.49 3.94018Z"
        fill="#1E1E1E" />
    <path
        d="M12.6299 22.8101C11.6399 22.8101 10.6799 22.4101 9.97988 21.7101C9.27988 21.0101 8.87988 20.0501 8.87988 19.0601H10.3799C10.3799 19.6501 10.6199 20.2301 11.0399 20.6501C11.4599 21.0701 12.0399 21.3101 12.6299 21.3101C13.8699 21.3101 14.8799 20.3001 14.8799 19.0601H16.3799C16.3799 21.1301 14.6999 22.8101 12.6299 22.8101Z"
        fill="#1E1E1E" />
</svg>