<svg width="39" height="40" viewBox="0 0 39 40" fill="none" xmlns="http://www.w3.org/2000/svg">
    <g clip-path="url(#clip0_126_1809)">
        <path
            d="M31.6691 17.5733C31.0951 17.5733 30.537 17.6455 30.0021 17.7808L27.1762 10.6717L29.6277 9.81524C30.2134 9.61055 30.53 8.94688 30.3347 8.3329C30.1394 7.71899 29.5066 7.38688 28.9205 7.5918L25.2516 8.87704C24.6816 9.12602 24.4121 9.81204 24.6496 10.4095L25.352 12.1766L15.5529 14.847L14.5463 12.3858H16.1014C16.7189 12.3858 17.2194 11.8611 17.2194 11.2139C17.2194 10.5667 16.7189 10.042 16.1014 10.042H11.3114C10.6939 10.042 10.1933 10.5667 10.1933 11.2139C10.1933 11.8611 10.6939 12.3858 11.3114 12.3858H12.1136L13.6022 16.0259L11.4353 18.6758C10.3534 17.977 9.08033 17.5733 7.71889 17.5733C3.80087 17.5733 0.613281 20.9144 0.613281 25.0212C0.613281 29.128 3.80087 32.4691 7.71882 32.4691C11.2565 32.4691 14.1983 29.745 14.7361 26.1931H18.4963C18.8535 26.1931 19.1892 26.0141 19.3997 25.7116L26.6113 15.3448L27.9389 18.6846C25.9147 19.9985 24.5633 22.3474 24.5633 25.0211C24.5633 29.1279 27.7508 32.469 31.6689 32.469C35.5869 32.469 38.7746 29.128 38.7746 25.0212C38.7746 20.9144 35.587 17.5733 31.6691 17.5733ZM7.71882 30.1254C5.03381 30.1254 2.8493 27.8356 2.8493 25.0212C2.8493 22.2067 5.03381 19.917 7.71882 19.917C8.52394 19.917 9.28336 20.1241 9.95305 20.4884L6.86995 24.2586C6.58576 24.6061 6.52061 25.0952 6.70307 25.5109C6.88553 25.9267 7.2822 26.1931 7.71882 26.1931H12.4573C11.9506 28.4443 10.0192 30.1254 7.71882 30.1254ZM10.1497 23.8493L14.5838 18.4268L16.8009 23.8493H10.1497ZM18.7503 22.6672L16.4438 17.0259L24.1323 14.9305L18.7503 22.6672ZM31.6691 30.1254C28.984 30.1254 26.7996 27.8356 26.7996 25.0213C26.7996 23.3235 27.5952 21.8177 28.8153 20.8892L30.637 25.472C30.8745 26.0694 31.5291 26.3519 32.099 26.103C32.669 25.854 32.9385 25.168 32.701 24.5706L30.8784 19.9854C31.1359 19.9411 31.3997 19.917 31.669 19.917C34.3541 19.917 36.5385 22.2068 36.5385 25.0212C36.5385 27.8356 34.3541 30.1254 31.6691 30.1254Z"
            fill="black" />
    </g>
    <defs>
        <clipPath id="clip0_126_1809">
            <rect width="38.1614" height="40" fill="white" transform="translate(0.613281)" />
        </clipPath>
    </defs>
</svg>