<svg width="35" height="36" viewBox="0 0 35 36" fill="none" xmlns="http://www.w3.org/2000/svg">
    <g clip-path="url(#clip0_126_1802)">
        <path
            d="M6.15346 16.875C6.15346 16.6139 6.2524 16.3635 6.42852 16.1789C6.60464 15.9943 6.84351 15.8906 7.09258 15.8906C7.34166 15.8906 7.58053 15.9943 7.75665 16.1789C7.93277 16.3635 8.03171 16.6139 8.03171 16.875V17.2969H11.2516V12.375C11.2516 12.1139 11.1526 11.8635 10.9765 11.6789C10.8004 11.4943 10.5615 11.3906 10.3124 11.3906H3.87272C3.62365 11.3906 3.38478 11.4943 3.20866 11.6789C3.03254 11.8635 2.93359 12.1139 2.93359 12.375V17.2969H6.15346V16.875Z"
            fill="#EF2C2E" />
        <path
            d="M23.0586 17.1562L24.7855 14.985C25.0493 14.6518 25.3801 14.3838 25.7541 14.2001C26.1281 14.0163 26.5362 13.9213 26.9493 13.9219H30.5716V12.9375C30.5716 12.6764 30.4727 12.426 30.2965 12.2414C30.1204 12.0568 29.8816 11.9531 29.6325 11.9531H23.0586V17.1562Z"
            fill="#EF2C2E" />
        <path
            d="M25.8763 5.625C25.8762 5.36397 25.7772 5.11368 25.6011 4.92911C25.425 4.74453 25.1862 4.64077 24.9372 4.64062H19.3024C19.0534 4.64077 18.8146 4.74453 18.6385 4.92911C18.4624 5.11368 18.3634 5.36397 18.3633 5.625V9.98438H25.8763V5.625Z"
            fill="#EF2C2E" />
        <path
            d="M21.18 11.9531H14.6061C14.357 11.9531 14.1182 12.0568 13.9421 12.2414C13.7659 12.426 13.667 12.6764 13.667 12.9375V17.2969H21.18V11.9531Z"
            fill="#EF2C2E" />
        <path
            d="M33.9257 15.8906H26.9493C26.8117 15.8906 26.6757 15.9224 26.5511 15.9836C26.4264 16.0449 26.3162 16.1341 26.2281 16.245L23.8266 19.2656H1.72708C1.58644 19.2656 1.44761 19.2988 1.32082 19.3626C1.19403 19.4264 1.08253 19.5192 0.99455 19.6342C0.906568 19.7492 0.844353 19.8834 0.812496 20.027C0.78064 20.1706 0.779955 20.3199 0.810494 20.4638L2.02331 26.1844C2.33462 27.6521 3.11409 28.9648 4.23306 29.9056C5.35202 30.8464 6.74359 31.3593 8.17808 31.3594H25.765C27.0883 31.3594 28.3781 30.9229 29.4516 30.1118C30.5251 29.3007 31.328 28.1562 31.7464 26.8403L34.8165 17.1861C34.8636 17.0381 34.8764 16.8806 34.8539 16.7264C34.8315 16.5723 34.7744 16.4259 34.6874 16.2994C34.6004 16.1729 34.486 16.0699 34.3535 15.9988C34.2211 15.9277 34.0745 15.8907 33.9257 15.8906Z"
            fill="#EF2C2E" />
        <path
            d="M10.1792 8.4375C10.1792 8.17643 10.0803 7.92605 9.90415 7.74144C9.72803 7.55684 9.48916 7.45312 9.24009 7.45312H8.03264V5.625C8.03264 5.36393 7.9337 5.11355 7.75758 4.92894C7.58146 4.74434 7.34259 4.64062 7.09352 4.64062C6.84444 4.64062 6.60557 4.74434 6.42945 4.92894C6.25333 5.11355 6.15439 5.36393 6.15439 5.625V7.45312H4.94694C4.69787 7.45312 4.459 7.55684 4.28288 7.74144C4.10676 7.92605 4.00781 8.17643 4.00781 8.4375V9.42188H10.1792V8.4375Z"
            fill="#EF2C2E" />
    </g>
    <defs>
        <clipPath id="clip0_126_1802">
            <rect width="34.3452" height="36" fill="white" transform="translate(0.65332)" />
        </clipPath>
    </defs>
</svg>