<svg width="47" height="48" viewBox="0 0 47 48" fill="none" xmlns="http://www.w3.org/2000/svg">
    <path
        d="M44.8801 22.9442C44.334 21.7922 44.2429 20.9282 44.2429 20.4482C44.2429 19.3922 43.5147 18.5282 42.5134 18.4322C38.6902 18.0482 38.5992 18.1442 38.235 18.0482C32.5913 16.1282 27.0385 15.2642 21.5768 15.5522C21.2127 15.5522 20.8485 15.6482 20.4844 15.8402C17.8446 16.8962 15.7509 17.9522 14.3855 18.9122C13.9304 19.2002 13.4752 19.3922 12.929 19.3922C10.3802 19.2002 3.55307 19.9682 2.27867 22.4642C1.36838 24.1922 1.18632 26.8802 1.82353 28.4162C2.18764 29.3762 3.27999 30.0482 4.2813 30.0482H4.55439C4.37233 29.5682 4.37233 29.0882 4.37233 28.5122C4.37233 25.2482 6.92114 22.6562 9.92509 22.6562C12.929 22.6562 15.4778 25.3442 15.4778 28.5122C15.4778 28.9922 15.3868 29.4722 15.2958 29.8562L30.4066 29.7602C30.3155 29.3762 30.3155 28.9922 30.3155 28.6082C30.3155 25.3442 32.8643 22.7522 35.8683 22.7522C38.9633 22.7522 41.421 25.4402 41.421 28.6082C41.421 28.9922 41.421 29.3762 41.33 29.6642H42.1493C43.2416 29.6642 44.1519 29.0882 44.6981 28.1282C45.4263 26.7842 45.4263 23.9042 44.8801 22.9442ZM24.7628 19.4882H17.2984C18.3908 18.9122 19.6652 18.0482 21.1216 17.4722C21.3037 17.3762 21.4857 17.3762 21.7588 17.3762H25.2179L24.7628 19.4882ZM26.5834 19.4882L26.9475 17.4722C29.8604 17.7602 32.7733 18.5282 35.6862 19.3922L26.5834 19.4882Z"
        fill="black" />
    <path
        d="M10.0159 32.5444C12.1096 32.5444 13.7481 30.7204 13.7481 28.6084C13.7481 26.4004 12.1096 24.6724 10.0159 24.6724C7.92223 24.6724 6.28371 26.4004 6.28371 28.6084C6.19268 30.8164 7.92223 32.5444 10.0159 32.5444Z"
        fill="black" />
    <path
        d="M35.8679 32.5444C37.9616 32.5444 39.6001 30.7204 39.6001 28.6084C39.6001 26.4004 37.8706 24.6724 35.8679 24.6724C33.7743 24.6724 32.1357 26.4004 32.1357 28.6084C32.1357 30.8164 33.7743 32.5444 35.8679 32.5444Z"
        fill="black" />
</svg>