<svg width="39" height="40" viewBox="0 0 39 40" fill="none" xmlns="http://www.w3.org/2000/svg">
    <g clip-path="url(#clip0_126_1788)">
        <path
            d="M6.54316 18.0262C3.07613 18.0262 0.265625 20.9721 0.265625 24.6069C0.265625 28.2405 3.07613 31.1867 6.54316 31.1867C9.07454 31.1867 11.2512 29.6123 12.244 27.3492L13.7354 28.5546C13.7354 28.5546 24.6951 28.6366 25.2972 28.2801C25.2972 28.2801 23.9371 24.3869 25.6635 22.7413C25.8452 22.568 26.0736 22.3704 26.3248 22.1611C26.0354 22.917 25.8727 23.7408 25.8727 24.6063C25.8727 28.2406 28.683 31.186 32.15 31.186C35.617 31.186 38.4271 28.2393 38.4271 24.6063C38.4271 20.9715 35.6164 18.0263 32.15 18.0263C32.0931 18.0263 32.0388 18.0338 31.9821 18.035C32.4355 17.7265 32.7248 17.5328 32.7248 17.5328L32.2541 17.0938C32.2541 17.0938 33.6142 16.7653 33.301 16.0521C32.9866 15.3388 29.6913 11.062 29.6913 11.062C29.6913 11.062 30.275 9.74573 29.0677 8.81348L28.4878 10.1296C28.4878 10.1296 27.0099 9.06024 26.4216 9.26616C25.833 9.47148 24.9508 9.57466 24.6752 10.0268L24.4009 10.2943C24.4009 10.2943 24.3233 10.7676 24.7735 11.4667C24.7735 11.4667 29.3056 12.9266 29.521 13.9958C29.521 13.9958 29.8353 14.675 28.4813 14.8386L28.2073 15.2092L27.4806 15.2502L26.167 12.1038C26.167 12.1038 24.9105 12.4533 24.2638 12.9876L24.3619 13.5219C24.3619 13.5219 19.085 9.75943 14.1215 15.3317C14.1215 15.3317 10.453 16.4419 7.88306 13.0287C7.88306 13.0287 7.84393 11.9184 1.6449 12.1241L2.0767 12.5971C2.0767 12.5971 1.6449 12.6381 1.46862 12.926C1.29234 13.2135 1.56665 13.522 2.97933 13.522C2.97933 13.522 6.17761 17.3466 8.62959 17.1209L12.1211 18.8895L13.6711 21.6654C13.6711 21.6654 13.6739 21.9038 13.6899 22.2686C13.3302 22.3489 12.9269 22.438 12.499 22.5332C11.6695 19.916 9.31911 18.0262 6.54316 18.0262ZM32.1499 20.0426C34.5511 20.0426 36.5037 22.09 36.5037 24.6062C36.5037 27.1226 34.5505 29.1693 32.1499 29.1693C29.7488 29.1693 27.7965 27.1219 27.7965 24.6062C27.7965 22.09 29.7489 20.0426 32.1499 20.0426ZM6.54316 29.1701C4.14263 29.1701 2.18934 27.1226 2.18934 24.6069C2.18934 22.09 4.14263 20.0433 6.54316 20.0433C8.38862 20.0433 9.9655 21.2552 10.5978 22.9578C8.28929 23.4724 5.99798 23.9844 5.99798 23.9844L6.2936 25.6911L10.8141 25.4818C10.4246 27.5803 8.65851 29.1701 6.54316 29.1701ZM14.0831 25.3301C14.2114 25.7868 14.3787 26.1499 14.5987 26.3057L12.5813 26.3884C12.6678 26.0645 12.733 25.732 12.7723 25.3899L14.0831 25.3301Z"
            fill="black" />
    </g>
    <defs>
        <clipPath id="clip0_126_1788">
            <rect width="38.1614" height="40" fill="white" transform="translate(0.265625)" />
        </clipPath>
    </defs>
</svg>