<svg width="25" height="24" viewBox="0 0 25 24" fill="none" xmlns="http://www.w3.org/2000/svg">
    <path
        d="M14.3403 3.51014L16.1003 7.03014C16.3403 7.52014 16.9803 7.99014 17.5203 8.08014L20.7103 8.61014C22.7503 8.95014 23.2303 10.4301 21.7603 11.8901L19.2803 14.3701C18.8603 14.7901 18.6303 15.6001 18.7603 16.1801L19.4703 19.2501C20.0303 21.6801 18.7403 22.6201 16.5903 21.3501L13.6003 19.5801C13.0603 19.2601 12.1703 19.2601 11.6203 19.5801L8.63026 21.3501C6.49026 22.6201 5.19026 21.6701 5.75026 19.2501L6.46026 16.1801C6.59026 15.6001 6.36026 14.7901 5.94026 14.3701L3.46026 11.8901C2.00026 10.4301 2.47026 8.95014 4.51026 8.61014L7.70026 8.08014C8.23026 7.99014 8.87026 7.52014 9.11026 7.03014L10.8703 3.51014C11.8303 1.60014 13.3903 1.60014 14.3403 3.51014Z"
        stroke="#1E1E1E" stroke-width="1.5" stroke-linecap="round" stroke-linejoin="round" />
</svg>