<svg width="40" height="40" viewBox="0 0 40 40" fill="none" xmlns="http://www.w3.org/2000/svg">
    <g clip-path="url(#clip0_126_1792)">
        <path d="M27.0012 8.59521H0.959961V23.9481H27.0012V8.59521Z" fill="#EF2C2E" />
        <path
            d="M39.1211 19.5748L36.444 13.2993H28.1689V25.105H18.6251H9.72552H4.10352V27.7889H6.78088C6.75948 27.9415 6.74472 28.0963 6.74472 28.255C6.74472 29.9946 8.07926 31.4048 9.72561 31.4048C11.372 31.4048 12.7065 29.9945 12.7065 28.255C12.7065 28.0963 12.6918 27.9415 12.6703 27.7889H15.6807C15.6593 27.9415 15.6445 28.0963 15.6445 28.255C15.6445 29.9946 16.979 31.4048 18.6254 31.4048C20.2716 31.4048 21.6062 29.9945 21.6062 28.255C21.6062 28.0963 21.5915 27.9415 21.5701 27.7889H28.1692H28.7547C28.7333 27.9415 28.7185 28.0963 28.7185 28.255C28.7185 29.9946 30.0531 31.4048 31.6994 31.4048C33.3456 31.4048 34.6802 29.9945 34.6802 28.255C34.6802 28.0963 34.6656 27.9415 34.6441 27.7889H39.1211V19.5748ZM9.72552 29.4878C9.08112 29.4878 8.55869 28.9358 8.55869 28.255C8.55869 28.0899 8.58994 27.9328 8.6455 27.7889C8.81949 27.3391 9.23716 27.0219 9.72543 27.0219C10.2137 27.0219 10.6314 27.3391 10.8054 27.7889C10.8609 27.9328 10.8922 28.0899 10.8922 28.255C10.8923 28.9358 10.3699 29.4878 9.72552 29.4878ZM18.6251 29.4878C17.9807 29.4878 17.4583 28.9358 17.4583 28.255C17.4583 28.0899 17.4895 27.9328 17.5451 27.7889C17.7191 27.3391 18.1368 27.0219 18.625 27.0219C19.1133 27.0219 19.531 27.3391 19.7049 27.7889C19.7605 27.9328 19.7918 28.0899 19.7918 28.255C19.7919 28.9358 19.2695 29.4878 18.6251 29.4878ZM31.699 29.4878C31.0546 29.4878 30.5321 28.9358 30.5321 28.255C30.5321 28.0899 30.5634 27.9328 30.6189 27.7889C30.7929 27.3391 31.2106 27.0219 31.6989 27.0219C32.1871 27.0219 32.6048 27.3391 32.7787 27.7889C32.8344 27.9328 32.8656 28.0899 32.8656 28.255C32.8658 28.9358 32.3435 29.4878 31.699 29.4878ZM30.1391 19.4567C30.0944 19.4567 30.0582 19.4187 30.0582 19.3718V15.1321C30.0582 15.0852 30.0943 15.0472 30.1391 15.0472H35.2333C35.3407 15.0472 35.4379 15.1139 35.4809 15.2171L37.2481 19.4567H30.1391Z"
            fill="#EF2C2E" />
    </g>
    <defs>
        <clipPath id="clip0_126_1792">
            <rect width="38.1614" height="40" fill="white" transform="translate(0.959961)" />
        </clipPath>
    </defs>
</svg>