<svg width="39" height="40" viewBox="0 0 39 40" fill="none" xmlns="http://www.w3.org/2000/svg">
    <g clip-path="url(#clip0_126_1799)">
        <path
            d="M32.2078 16.8983L27.99 9.81543C27.5227 9.03062 26.7024 8.5542 25.8197 8.5542H2.86494C1.45191 8.5542 0.306641 9.75465 0.306641 11.2358V26.3062C0.306641 27.7873 1.45191 28.9877 2.86494 28.9877H3.53607C4.18247 30.434 5.57504 31.4458 7.197 31.4458C8.81897 31.4458 10.2107 30.434 10.8571 28.9877H27.9184C28.5648 30.434 29.9574 31.4458 31.5793 31.4458C33.1996 31.4458 34.593 30.434 35.2386 28.9877H35.9097C37.3219 28.9877 38.468 27.7873 38.468 26.3062V24.0751C38.468 20.3236 35.7101 17.2264 32.2078 16.8983ZM7.20297 28.9564C6.27857 28.9564 5.52899 28.1707 5.52899 27.2018C5.52899 26.2329 6.27857 25.4463 7.20297 25.4463C8.12737 25.4463 8.87696 26.2329 8.87696 27.2018C8.87696 28.1707 8.12737 28.9564 7.20297 28.9564ZM22.5144 18.7719V13.9173V11.2367H25.8197L30.3087 18.7719H22.5144ZM31.5785 28.9564C30.6541 28.9564 29.9045 28.1707 29.9045 27.2018C29.9045 26.2329 30.6541 25.4463 31.5785 25.4463C32.5029 25.4463 33.2525 26.2329 33.2525 27.2018C33.2525 28.1707 32.5029 28.9564 31.5785 28.9564Z"
            fill="#EF2C2E" />
    </g>
    <defs>
        <clipPath id="clip0_126_1799">
            <rect width="38.1614" height="40" fill="white" transform="translate(0.306641)" />
        </clipPath>
    </defs>
</svg>